<svg xmlns="http://www.w3.org/2000/svg" width="24" height="24" viewBox="0 0 24 24">
    <g fill="none" fill-rule="evenodd">
        <path d="M0 0h24v24H0z"/>
        <path fill="#D3D3D3" fill-rule="nonzero" stroke="#D3D3D3" stroke-width=".8" d="M15.573 6.399A6.437 6.437 0 0 0 10.991 4.5 6.437 6.437 0 0 0 6.408 6.4a6.488 6.488 0 0 0 0 9.165 6.437 6.437 0 0 0 4.583 1.899 6.437 6.437 0 0 0 4.582-1.899 6.488 6.488 0 0 0 0-9.165zm-.572 8.593a5.635 5.635 0 0 1-4.01 1.661c-1.515 0-2.94-.59-4.01-1.661a5.678 5.678 0 0 1 0-8.02 5.635 5.635 0 0 1 4.01-1.662c1.515 0 2.939.59 4.01 1.661a5.678 5.678 0 0 1 0 8.021zm4.373 3.8L17.35 16.77a.405.405 0 1 0-.572.572l2.023 2.024a.403.403 0 0 0 .573 0 .405.405 0 0 0 0-.573z"/>
    </g>
</svg>
